<?xml version="1.0" encoding="UTF-8"?>
<svg width="22px" height="22px" viewBox="0 0 22 22" version="1.1" xmlns="http://www.w3.org/2000/svg" xmlns:xlink="http://www.w3.org/1999/xlink">
    <!-- Generator: Sketch 52.6 (67491) - http://www.bohemiancoding.com/sketch -->
    <title>iconsSmallAddPeopleGrey</title>
    <desc>Created with Sketch.</desc>
    <g id="Symbols" stroke="none" stroke-width="1" fill="none" fill-rule="evenodd">
        <g id="Icons/-Small-/-Add-Users-/-Grey">
            <path d="M13.7777778,7.77777778 C13.7777778,9.31166667 12.5338889,10.5555556 11,10.5555556 C9.46611111,10.5555556 8.22222222,9.31166667 8.22222222,7.77777778 C8.22222222,6.24388889 9.46611111,5 11,5 C12.5338889,5 13.7777778,6.24388889 13.7777778,7.77777778 Z M6,15.8888889 C6,13.7411111 8.23833333,12 11,12 C13.7616667,12 16,13.7411111 16,15.8888889 L16,16.7222222 C16,16.8755556 15.8683333,17 15.7061111,17 L6.29388889,17 C6.13166667,17 6,16.8755556 6,16.7222222 L6,15.8888889 Z" id="Combined-Shape" fill="#A2A5AE"></path>
            <g id="Group-4" transform="translate(15.000000, 8.000000)" stroke="#A2A5AE" stroke-linecap="round">
                <path d="M3,0 L3,6" id="Line"></path>
                <path d="M0,3 L6,3" id="Line-Copy"></path>
            </g>
        </g>
    </g>
</svg>