<?xml version="1.0" encoding="UTF-8"?>
<svg width="64px" height="64px" viewBox="0 0 64 64" version="1.1" xmlns="http://www.w3.org/2000/svg" xmlns:xlink="http://www.w3.org/1999/xlink">
    <!-- Generator: Sketch 53 (72520) - https://sketchapp.com -->
    <title>AdvancedSearch@2x</title>
    <desc>Created with Sketch.</desc>
    <g id="Premium" stroke="none" stroke-width="1" fill="none" fill-rule="evenodd">
        <g id="Premium-tour-1.1-4" transform="translate(-32.000000, -821.000000)">
            <g id="AdvancedSearch" transform="translate(32.000000, 821.000000)">
                <circle id="Oval" fill="#FFFFFF" cx="32" cy="32" r="32"></circle>
                <g id="Icons/Medium/Search/Gold" transform="translate(14.000000, 14.000000)" fill="#EBAB37">
                    <g id="Icon-/-Settings" transform="translate(6.499033, 6.499033)">
                        <path d="M20.9052224,17.1141199 L17.3307544,13.5396518 C17.9806576,12.2398453 18.4139265,10.7234043 18.4139265,9.20696325 C18.4139265,4.11605416 14.2978723,0 9.20696325,0 C4.11605416,0 0,4.11605416 0,9.20696325 C0,14.2978723 4.11605416,18.4139265 9.20696325,18.4139265 C10.7234043,18.4139265 12.2398453,17.9806576 13.5396518,17.3307544 L17.1141199,20.9052224 C18.1972921,21.9883946 19.8220503,21.9883946 20.9052224,20.9052224 C21.8800774,19.8220503 21.8800774,18.1972921 20.9052224,17.1141199 Z M2.16634429,9.20696325 C2.16634429,5.30754352 5.30754352,2.16634429 9.20696325,2.16634429 C13.106383,2.16634429 16.2475822,5.30754352 16.2475822,9.20696325 C16.2475822,13.106383 13.106383,16.2475822 9.20696325,16.2475822 C5.30754352,16.2475822 2.16634429,13.106383 2.16634429,9.20696325 Z" id="Shape" fill-rule="nonzero"></path>
                    </g>
                </g>
            </g>
        </g>
    </g>
</svg>