<?xml version="1.0" encoding="UTF-8"?>
<svg width="22px" height="22px" viewBox="0 0 22 22" version="1.1" xmlns="http://www.w3.org/2000/svg" xmlns:xlink="http://www.w3.org/1999/xlink">
    <!-- Generator: Sketch 52.6 (67491) - http://www.bohemiancoding.com/sketch -->
    <title>iconsSmallArchiveGrey</title>
    <desc>Created with Sketch.</desc>
    <g id="Symbols" stroke="none" stroke-width="1" fill="none" fill-rule="evenodd">
        <g id="Icons/-Small-/-Archive-/-Grey" fill="#A2A5AE">
            <path d="M14.7142857,7.28571429 L8.28571429,7.28571429 C7.98984732,7.28571429 7.75,7.52555893 7.75,7.82142857 L7.75,8.35714286 C7.75,8.6530125 7.98984786,8.89285714 8.28571429,8.89285714 L14.7142857,8.89285714 C15.01015,8.89285714 15.25,8.6530125 15.25,8.35714286 L15.25,7.82142857 C15.25,7.52555893 15.01015,7.28571429 14.7142857,7.28571429 Z M14.7142857,9.96428571 L8.28571429,9.96428571 C7.98984732,9.96428571 7.75,10.2041304 7.75,10.5 L7.75,11.0357143 C7.75,11.3315786 7.98984786,11.5714286 8.28571429,11.5714286 L14.7142857,11.5714286 C15.01015,11.5714286 15.25,11.3315786 15.25,11.0357143 L15.25,10.5 C15.25,10.2041304 15.01015,9.96428571 14.7142857,9.96428571 Z M16.7821429,3 L6.21785714,3 C4.99419036,3.00294643 4.00294482,3.99418929 4,5.21785714 L4,16.853572 C4.00294536,18.0772371 4.99419036,19.0684827 6.21785661,19.0714286 L16.7821429,19.0714286 C18.0058107,19.0684827 18.9970536,18.0772371 19,16.853572 L19,5.21785714 C18.9970536,3.99418929 18.0058107,3.00294643 16.7821429,3 Z M16.8571429,13.1785714 C16.8571429,13.4744357 16.6172929,13.7142857 16.3214286,13.7142857 L14.7142857,13.7142857 C14.4184214,13.7142857 14.1785714,13.9541357 14.1785714,14.25 L14.1785714,15.8571429 C14.1785714,16.1530093 13.9387214,16.3928571 13.6428571,16.3928571 L9.35714286,16.3928571 C9.06127321,16.3928571 8.82142857,16.1530093 8.82142857,15.8571429 L8.82142857,14.25 C8.82142857,13.9541357 8.58158393,13.7142857 8.28571429,13.7142857 L6.67857143,13.7142857 C6.38270446,13.7142857 6.14285714,13.4744357 6.14285714,13.1785714 L6.14285714,5.67857143 C6.14285714,5.38270714 6.38270446,5.14285714 6.67857143,5.14285714 L16.3214286,5.14285714 C16.6172929,5.14285714 16.8571429,5.38270714 16.8571429,5.67857143 L16.8571429,13.1785714 Z" id="Fill-1"></path>
        </g>
    </g>
</svg>