<?xml version="1.0" encoding="UTF-8"?>
<svg width="64px" height="64px" viewBox="0 0 64 64" version="1.1" xmlns="http://www.w3.org/2000/svg" xmlns:xlink="http://www.w3.org/1999/xlink">
    <!-- Generator: Sketch 53 (72520) - https://sketchapp.com -->
    <title>BetterEditing@1x</title>
    <desc>Created with Sketch.</desc>
    <g id="Premium" stroke="none" stroke-width="1" fill="none" fill-rule="evenodd">
        <g id="Premium-tour-1.1-4" transform="translate(-32.000000, -1050.000000)">
            <g id="BetterEditing" transform="translate(32.000000, 1050.000000)">
                <circle id="Oval" fill="#FFFFFF" cx="32" cy="32" r="32"></circle>
                <g id="Icons/Medium/-Edit-/-Gold" transform="translate(14.000000, 14.000000)" fill="#EBAB37">
                    <path d="M17.6059645,11.4151107 L8.15920386,20.8618707 C7.78876747,21.2333212 7.58119371,21.7367985 7.58220873,22.2613914 L7.58220873,25.3857587 C7.58220873,25.7247642 7.85702722,25.9995833 8.19603334,25.9995833 L11.3326771,25.9995833 C11.8485518,25.9990855 12.3431152,25.7937525 12.7076448,25.4287252 L22.1605431,15.9696893 L17.6059645,11.4151107 Z M9.42368254,24.1581095 L9.42368254,21.7028111 C11.3019858,21.7028111 11.878981,22.2798068 11.878981,24.1581095 L9.42368254,24.1581095 Z M23.2715656,7.86106625 C22.4954703,7.39746908 21.5034684,7.52146779 20.8653732,8.1618403 L19.3737794,9.65343409 L23.9283579,14.2080126 L25.4199517,12.7164189 C26.0582434,12.0773047 26.1820579,11.0867943 25.7207258,10.3102264 C25.1191838,9.30406354 24.2777285,8.46261436 23.2715656,7.86106625 Z" id="Fill-1"></path>
                </g>
            </g>
        </g>
    </g>
</svg>