<?xml version="1.0" encoding="UTF-8"?>
<svg width="22px" height="22px" viewBox="0 0 22 22" version="1.1" xmlns="http://www.w3.org/2000/svg" xmlns:xlink="http://www.w3.org/1999/xlink">
    <!-- Generator: Sketch 52.6 (67491) - http://www.bohemiancoding.com/sketch -->
    <title>iconsSmallDeleteGrey</title>
    <desc>Created with Sketch.</desc>
    <g id="Symbols" stroke="none" stroke-width="1" fill="none" fill-rule="evenodd">
        <g id="Icons/-Small-/-Delete-/-Grey" fill="#A2A5AE">
            <path d="M18.4642857,5.67857143 L14.1785714,5.67857143 C14.1785714,4.19923929 12.9793375,3 11.5,3 C10.0206679,3 8.82142857,4.19923929 8.82142857,5.67857143 L4.53571429,5.67857143 C4.23984732,5.67857143 4,5.91842143 4,6.21428571 L4,7.82142857 C4,8.11729821 4.23984732,8.35714286 4.53571429,8.35714286 L5.07142857,8.35714286 L6.44821429,17.9250005 C6.54051786,18.5756287 7.09292125,19.0621098 7.75,19.0714296 L15.1642857,19.0714286 C15.8274786,19.0700223 16.3889232,18.5816121 16.4821429,17.9250005 L17.8535714,8.35714286 L18.4642857,8.35714286 C18.76015,8.35714286 19,8.11729821 19,7.82142857 L19,6.21428571 C19,5.91842143 18.76015,5.67857143 18.4642857,5.67857143 Z M9.65714286,16.4303571 L9.59285714,16.4303571 C9.16746786,16.4579748 8.79929821,16.1376204 8.76785714,15.7124989 L8.425,10.8375 C8.39737857,10.4121107 8.71773571,10.0439411 9.14285714,10.0125 L9.20714286,10.0125 C9.63253214,9.98487857 10.0007018,10.3052357 10.0321429,10.7303571 L10.375,15.6053566 C10.4026214,16.0307437 10.0822643,16.3989145 9.65714286,16.4303571 Z M14.2267857,15.7178571 C14.1953446,16.1429775 13.827175,16.4633325 13.4017857,16.4357121 L13.3375,16.4357143 C12.9123786,16.4042716 12.5920214,16.0361009 12.6196429,15.6107137 L12.9625,10.7357143 C12.9939411,10.3105929 13.3621107,9.99023571 13.7875,10.0178571 L13.8517857,10.0178571 C14.2769071,10.0492982 14.5972643,10.4174679 14.5696429,10.8428571 L14.2267857,15.7178571 Z M11.5,4.60714286 C12.0917339,4.60714286 12.5714286,5.0868375 12.5714286,5.67857143 L10.4285714,5.67857143 C10.4285714,5.0868375 10.9082661,4.60714286 11.5,4.60714286 Z" id="Fill-1"></path>
        </g>
    </g>
</svg>