<?xml version="1.0" encoding="UTF-8"?>
<svg width="48px" height="48px" viewBox="0 0 48 48" version="1.1" xmlns="http://www.w3.org/2000/svg" xmlns:xlink="http://www.w3.org/1999/xlink">
    <!-- Generator: Sketch 53 (72520) - https://sketchapp.com -->
    <title>dribbble</title>
    <desc>Created with Sketch.</desc>
    <g id="Premium" stroke="none" stroke-width="1" fill="none" fill-rule="evenodd">
        <g id="Premium-tour-1.2" transform="translate(-251.000000, -566.000000)" fill="#B22658">
            <g id="Group-5" transform="translate(77.000000, 566.000000)">
                <g id="dribbble" transform="translate(174.000000, 0.000000)">
                    <rect id="Rectangle-Copy-3" fill-rule="nonzero" opacity="0.100000001" x="0" y="0" width="48" height="48" rx="24"></rect>
                    <path d="M24,11 C16.82322,11 11,16.82322 11,24 C11,31.17678 16.82322,37 24,37 C31.16274,37 37,31.17678 37,24 C37,16.82322 31.16274,11 24,11 Z M32.58676,16.99248 C34.13766,18.88164 35.0682,21.29288 35.09654,23.90146 C34.72994,23.83074 31.06394,23.0835 27.36986,23.5489 C27.28536,23.3656 27.21464,23.168 27.13014,22.97066 C26.90472,22.4348 26.6507,21.88516 26.39694,21.36334 C30.4857,19.6996 32.34704,17.30266 32.58676,16.99248 Z M24,12.91776 C26.81996,12.91776 29.40046,13.97492 31.36008,15.70938 C31.16274,15.99122 29.48496,18.2332 25.53686,19.71364 C23.7179,16.37212 21.70186,13.63666 21.39142,13.21364 C22.22342,13.0163 23.09754,12.91776 24,12.91776 Z M19.27658,13.96088 C19.57272,14.35582 21.54664,17.10506 23.39368,20.37638 C18.20486,21.75802 13.62262,21.72994 13.12888,21.7299828 C13.8483,18.28962 16.17452,15.42728 19.27658,13.96088 Z M12.88942,24.01404 C12.88942,23.90146 12.88942,23.78862 12.88942,23.67578 C13.36886,23.68982 18.75502,23.76028 24.29614,22.09654 C24.62036,22.7169 24.91624,23.3513 25.19834,23.98596 C25.05742,24.02808 24.90246,24.07046 24.76154,24.11284 C19.03686,25.95988 15.99122,31.00752 15.73746,31.43054 C13.97492,29.47066 12.88942,26.86234 12.88942,24.01404 Z M24,35.11058 C21.4338,35.11058 19.06494,34.23646 17.18982,32.77006 C17.38716,32.36108 19.64318,28.0183 25.90346,25.833 C25.9318,25.81896 25.94558,25.81896 25.97392,25.80466 C27.53886,29.85156 28.17352,33.2495 28.34278,34.22216 C27.00326,34.8004 25.53686,35.11058 24,35.11058 Z M30.18982,33.20712 C30.07698,32.5306 29.48496,29.28736 28.0326,25.29714 C31.51504,24.74724 34.56068,25.6497 34.94132,25.77658 C34.46188,28.86434 32.6853,31.52934 30.18982,33.20712 L30.18982,33.20712 Z" id="Fill-3"></path>
                </g>
            </g>
        </g>
    </g>
</svg>