<?xml version="1.0" encoding="UTF-8"?>
<svg width="22px" height="22px" viewBox="0 0 22 22" version="1.1" xmlns="http://www.w3.org/2000/svg" xmlns:xlink="http://www.w3.org/1999/xlink">
    <!-- Generator: Sketch 52.6 (67491) - http://www.bohemiancoding.com/sketch -->
    <title>iconsSmallDuplicateGrey</title>
    <desc>Created with Sketch.</desc>
    <g id="Symbols" stroke="none" stroke-width="1" fill="none" fill-rule="evenodd">
        <g id="Icons/-Small-/-Duplicate-/-Grey" fill="#A2A5AE">
            <path d="M5,7 L11,7 C13.209139,7 15,8.790861 15,11 L15,18 C15,18.5522847 14.5522847,19 14,19 L5,19 C4.44771525,19 4,18.5522847 4,18 L4,8 C4,7.44771525 4.44771525,7 5,7 Z" id="Rectangle"></path>
            <path d="M16,16 L16,11 C16,8.23857625 13.7614237,6 11,6 L7,6 L7,5 C7,4.44771525 7.44771525,4 8,4 L14,4 C16.209139,4 18,5.790861 18,8 L18,15 C18,15.5522847 17.5522847,16 17,16 L16,16 Z" id="Combined-Shape"></path>
        </g>
    </g>
</svg>