<?xml version="1.0" encoding="UTF-8"?>
<svg width="22px" height="22px" viewBox="0 0 22 22" version="1.1" xmlns="http://www.w3.org/2000/svg" xmlns:xlink="http://www.w3.org/1999/xlink">
    <!-- Generator: Sketch 52.6 (67491) - http://www.bohemiancoding.com/sketch -->
    <title>iconsSmallEditGrey</title>
    <desc>Created with Sketch.</desc>
    <g id="Symbols" stroke="none" stroke-width="1" fill="none" fill-rule="evenodd">
        <g id="Icons/-Small-/-Edit-/-Grey" fill="#A2A5AE">
            <path d="M11.6211714,6.91419914 L4.43869838,14.0966717 C4.15705163,14.3790895 3.99923109,14.7618887 4.00000282,15.1607423 L4.00000282,17.5362321 C4.00000282,17.7939816 4.20895025,18.0029295 4.46670022,18.0029295 L6.85152396,18.0029295 C7.24374906,18.002551 7.6197709,17.8464342 7.89692662,17.5689 L15.0840662,10.3770939 L11.6211714,6.91419914 Z M5.40009503,16.6028373 L5.40009503,14.7360477 C6.82818909,14.7360477 7.26688465,15.1747437 7.26688465,16.6028373 L5.40009503,16.6028373 Z M15.9287885,4.21202116 C15.338715,3.85954328 14.5844853,3.95382083 14.0993347,4.44070289 L12.96526,5.57477759 L16.4281547,9.03767234 L17.5622294,7.90359764 C18.0475294,7.4176723 18.1416669,6.6645767 17.7909111,6.07414381 C17.3335524,5.30914743 16.6937849,4.66938462 15.9287885,4.21202116 Z" id="Fill-1"></path>
        </g>
    </g>
</svg>