<?xml version="1.0" encoding="UTF-8"?>
<svg width="32px" height="32px" viewBox="0 0 32 32" version="1.1" xmlns="http://www.w3.org/2000/svg" xmlns:xlink="http://www.w3.org/1999/xlink">
    <!-- Generator: Sketch 53 (72520) - https://sketchapp.com -->
    <title>Icons/Medium/ Star / Gold@1x</title>
    <desc>Created with Sketch.</desc>
    <g id="Icons/Medium/-Star-/-Gold" stroke="none" stroke-width="1" fill="none" fill-rule="evenodd">
        <path d="M16.4632861,7.28802715 L18.8440391,12.1122274 C18.9194893,12.2647563 19.0649617,12.3703323 19.233232,12.3947587 L24.5570864,13.1685305 C24.9807476,13.2301392 25.1501035,13.7506914 24.8434173,14.0497783 L20.9911136,17.8049195 C20.8692533,17.9235229 20.8136156,18.0945072 20.8423843,18.2622347 L21.7518581,23.5643769 C21.8243228,23.9864096 21.3811206,24.3082943 21.0022411,24.109084 L16.2404637,21.6056566 C16.090106,21.5266781 15.909894,21.5266781 15.7595363,21.6056566 L10.9977589,24.109084 C10.6188794,24.3082943 10.1756772,23.9864096 10.2481419,23.5643769 L11.1576157,18.2622347 C11.1863844,18.0945072 11.1307467,17.9235229 11.0088864,17.8049195 L7.1565827,14.0497783 C6.84989654,13.7506914 7.01925244,13.2301392 7.44291357,13.1685305 L12.766768,12.3947587 C12.9350383,12.3703323 13.0805107,12.2647563 13.1556895,12.1122274 L15.5367139,7.28802715 C15.7261537,6.90399095 16.2738463,6.90399095 16.4632861,7.28802715" id="Fill-1" fill="#EBAB37"></path>
    </g>
</svg>