<?xml version="1.0" encoding="UTF-8"?>
<svg width="48px" height="48px" viewBox="0 0 48 48" version="1.1" xmlns="http://www.w3.org/2000/svg" xmlns:xlink="http://www.w3.org/1999/xlink">
    <!-- Generator: Sketch 53 (72520) - https://sketchapp.com -->
    <title>linkedin</title>
    <desc>Created with Sketch.</desc>
    <g id="Premium" stroke="none" stroke-width="1" fill="none" fill-rule="evenodd">
        <g id="Premium-tour-1.2" transform="translate(-193.000000, -566.000000)" fill="#007DBB" fill-rule="nonzero">
            <g id="Group-5" transform="translate(77.000000, 566.000000)">
                <g id="linkedin" transform="translate(116.000000, 0.000000)">
                    <rect id="Rectangle-Copy-2" opacity="0.100000001" x="0" y="0" width="48" height="48" rx="24"></rect>
                    <path d="M17.453125,19.453125 L12.296875,19.453125 L12.296875,34.9375 L17.453125,34.9375 L17.453125,19.453125 Z M17.78125,14.671875 C17.765625,13.15625 16.671875,12 14.90625,12 C13.15625,12 12,13.15625 12,14.671875 C12,16.15625 13.109375,17.34375 14.84375,17.34375 L14.875,17.34375 C16.671875,17.34375 17.796875,16.15625 17.78125,14.671875 Z M25.4375,21.653987 L25.4375,19.453125 L20.296875,19.453125 C20.296875,19.453125 20.359375,20.90625 20.296875,34.9375 L25.4375,34.9375 L25.4375,26.296875 C25.4375,25.828125 25.484375,25.375 25.609375,25.03125 C25.984375,24.109375 26.828125,23.15625 28.25,23.15625 C30.109375,23.15625 30.859375,24.578125 30.859375,26.65625 L30.859375,34.9375 L36,34.9375 L36,26.0625 C36,21.3125 33.46875,19.09375 30.078125,19.09375 C27.339459,19.09375 26.115812,20.5936185 25.4375,21.653987 L25.4375,21.653987 Z" id="linkedin---FontAwesome"></path>
                </g>
            </g>
        </g>
    </g>
</svg>