<?xml version="1.0" encoding="UTF-8"?>
<svg width="220px" height="58px" viewBox="0 0 220 58" version="1.1" xmlns="http://www.w3.org/2000/svg" xmlns:xlink="http://www.w3.org/1999/xlink">
    <!-- Generator: Sketch 53 (72520) - https://sketchapp.com -->
    <title>logoMello-Tutorial</title>
    <desc>Created with Sketch.</desc>
    <g id="Sign-Up-&amp;-Log-In-v6" stroke="none" stroke-width="1" fill="none" fill-rule="evenodd">
        <g id="Tour-1.0" transform="translate(-26.000000, -442.000000)">
            <g id="logoMello-Tutorial" transform="translate(26.000000, 442.000000)">
                <g id="Group-2" transform="translate(-0.000028, 1.667931)">
                    <path d="M-7.10542736e-15,27.7155102 C-7.10542736e-15,12.4086735 12.4086735,-3.55271368e-15 27.7155102,-3.55271368e-15 C43.0223469,-3.55271368e-15 55.4310204,12.4086735 55.4310204,27.7155102 C55.4310204,43.0223469 43.0223469,55.4310204 27.7155102,55.4310204 C12.4086735,55.4310204 -7.10542736e-15,43.0223469 -7.10542736e-15,27.7155102" id="Fill-1" fill="#E2DCF4"></path>
                    <polygon id="Fill-4" fill="#3E25B2" points="15.334477 40.0980867 15.334477 15.3346173 27.7164923 27.716352"></polygon>
                    <polygon id="Fill-6" fill="#A28CDB" points="15.334477 15.3346173 40.098227 15.3346173 27.7164923 27.716352"></polygon>
                    <polygon id="Fill-8" fill="#C6B7ED" points="27.716352 27.716352 40.0980867 15.3346173 40.0980867 40.0980867"></polygon>
                </g>
                <path d="M106.5515,14.1426888 C101.91298,14.1426888 98.4342296,16.2683265 96.372852,20.0055204 C94.6333367,16.5259286 91.476449,14.1426888 86.7096888,14.1426888 C81.7487449,14.1426888 78.4633367,16.9771531 77.1105051,20.0055204 L76.9817041,20.0055204 L76.9817041,15.0445765 L69.6375204,15.0445765 L69.6375204,45.9672041 L77.3681071,45.9672041 L77.3681071,28.9598571 C77.3681071,24.8368214 79.4943061,20.5847041 84.1325459,20.5847041 C88.0622398,20.5847041 89.8660153,23.4839898 89.8660153,27.284602 L89.8660153,45.9672041 L97.5968827,45.9672041 L97.5968827,29.0886582 C97.5968827,25.0944235 99.5937194,20.5847041 104.425301,20.5847041 C109.386245,20.5847041 110.223311,25.1589643 110.223311,28.8310561 L110.223311,45.9672041 L117.954179,45.9672041 L117.954179,26.6408776 C117.954179,20.327102 114.60423,14.1426888 106.5515,14.1426888" id="Fill-11" fill="#000000"></path>
                <path d="M130.321742,27.4136837 C130.643885,23.0973061 134.315977,19.9404184 138.889957,19.9404184 C143.91488,19.9404184 146.16988,23.4197296 146.16988,27.4136837 L130.321742,27.4136837 Z M138.954497,14.1426888 C129.613196,14.1426888 122.591156,20.7137857 122.591156,30.6990918 C122.591156,40.7489388 129.677737,46.8690918 139.212099,46.8690918 C145.074651,46.8690918 149.455288,44.8077143 152.483094,40.6846786 L147.32937,36.5616429 C145.590135,39.0097041 143.012992,40.5555969 139.147559,40.5555969 C134.63812,40.5555969 130.643885,37.334449 130.321742,32.9538112 L153.835926,32.9538112 C153.900467,32.2452653 153.900467,31.6009796 153.900467,30.8921531 C153.900467,19.7476378 147.586972,14.1426888 138.954497,14.1426888 L138.954497,14.1426888 Z" id="Fill-13" fill="#000000"></path>
                <polygon id="Fill-15" fill="#000000" points="158.924184 45.9673724 166.65477 45.9673724 166.65477 -2.84217094e-14 158.924184 -2.84217094e-14"></polygon>
                <polygon id="Fill-17" fill="#000000" points="173.611148 45.9673724 181.341735 45.9673724 181.341735 -2.84217094e-14 173.611148 -2.84217094e-14"></polygon>
                <path d="M203.180214,40.4270765 C197.059781,40.4270765 194.225316,35.2088112 194.225316,30.3772296 C194.225316,25.545648 197.059781,20.4561837 203.180214,20.4561837 C209.300367,20.4561837 212.134832,25.545648 212.134832,30.3772296 C212.134832,35.2088112 209.300367,40.4270765 203.180214,40.4270765 M203.180214,14.1426888 C193.838913,14.1426888 186.365929,20.6492449 186.365929,30.3772296 C186.365929,40.1046531 193.838913,46.8690918 203.180214,46.8690918 C212.521235,46.8690918 219.994219,40.1046531 219.994219,30.3772296 C219.994219,20.6492449 212.521235,14.1426888 203.180214,14.1426888" id="Fill-18" fill="#000000"></path>
            </g>
        </g>
    </g>
</svg>