<?xml version="1.0" encoding="UTF-8"?>
<svg width="64px" height="64px" viewBox="0 0 64 64" version="1.1" xmlns="http://www.w3.org/2000/svg" xmlns:xlink="http://www.w3.org/1999/xlink">
    <!-- Generator: Sketch 53 (72520) - https://sketchapp.com -->
    <title>MelloOffline@1x</title>
    <desc>Created with Sketch.</desc>
    <g id="Premium" stroke="none" stroke-width="1" fill="none" fill-rule="evenodd">
        <g id="Premium-tour-1.1-4" transform="translate(-32.000000, -592.000000)">
            <g id="MelloOffline" transform="translate(32.000000, 592.000000)">
                <circle id="Oval-Copy-3" fill="#FFFFFF" cx="32" cy="32" r="32"></circle>
                <g id="Icons/Medium/Offline/Gold" transform="translate(14.000000, 14.000000)" fill="#EBAB37" fill-rule="nonzero">
                    <path d="M21.9216025,22.6196147 C22.1570247,22.3825473 22.1570247,22.0032395 21.9216025,21.7661721 L21.0740825,20.9127296 C20.8386603,20.6756622 20.4619848,20.6756622 20.2265626,20.9127296 L18.1548471,22.9989225 C18.0135937,23.1411629 17.7310871,23.1411629 17.5898338,22.9989225 L15.5181183,20.9127296 C15.282696,20.6756622 14.9060205,20.6756622 14.6705983,20.9127296 L13.8230783,21.7661721 C13.5876561,22.0032395 13.5876561,22.3825473 13.8230783,22.6196147 L15.8947938,24.7058077 C16.0360471,24.8480481 16.0360471,25.1325289 15.8947938,25.2747694 L13.8230783,27.3609623 C13.5876561,27.5980297 13.5876561,27.9773375 13.8230783,28.2144049 L14.6705983,29.0678474 C14.9060205,29.3049148 15.282696,29.3049148 15.5181183,29.0678474 L17.5898338,26.9816545 C17.7310871,26.8394141 18.0135937,26.8394141 18.1548471,26.9816545 L20.2265626,29.0678474 C20.4619848,29.3049148 20.8386603,29.3049148 21.0740825,29.0678474 L21.9216025,28.2144049 C22.1570247,27.9773375 22.1570247,27.5980297 21.9216025,27.3609623 L19.849887,25.2747694 C19.7086337,25.1325289 19.7086337,24.8480481 19.849887,24.7058077 L21.9216025,22.6196147 Z M28.0425801,11.0033131 C25.4529357,8.11109106 21.7803492,6.49903288 17.8723404,6.49903288 C13.9643317,6.49903288 10.2917451,8.11109106 7.70210075,11.0033131 C7.51376298,11.192967 7.56084743,11.5248613 7.74918517,11.6671018 L9.16171846,12.8998521 C9.35005623,13.089506 9.6325629,13.0420926 9.82090067,12.8524387 C11.8926162,10.6240053 14.8118516,9.34384144 17.8723404,9.34384144 C20.9328292,9.34384144 23.8520647,10.6240053 25.9237802,12.8524387 C26.1121179,13.0420926 26.3946246,13.0420926 26.5829624,12.8998521 L27.9954957,11.6671018 C28.1838334,11.4774479 28.2309179,11.192967 28.0425801,11.0033131 L28.0425801,11.0033131 Z M17.8723404,13.1369195 C15.8947938,13.1369195 14.0114161,13.9903621 12.6930517,15.5075933 C12.5047139,15.6972472 12.5517984,16.0291415 12.7401361,16.2187955 L14.2468383,17.3567189 C14.4351761,17.4989593 14.7176828,17.4989593 14.8589361,17.3093054 C15.6593716,16.4558628 16.7423138,15.9817281 17.8723404,15.9817281 C19.002367,15.9817281 20.0853092,16.4558628 20.8386603,17.2618919 C20.9799136,17.4515458 21.2624203,17.4515458 21.4507581,17.3093054 L22.9574603,16.171382 C23.1928825,15.9817281 23.1928825,15.6972472 23.0045447,15.4601799 C21.7332647,13.9903621 19.849887,13.1369195 17.8723404,13.1369195 L17.8723404,13.1369195 Z" id="Shape"></path>
                </g>
            </g>
        </g>
    </g>
</svg>