<?xml version="1.0" encoding="UTF-8"?>
<svg width="106px" height="79px" viewBox="0 0 106 79" version="1.1" xmlns="http://www.w3.org/2000/svg" xmlns:xlink="http://www.w3.org/1999/xlink">
    <!-- Generator: Sketch 53 (72520) - https://sketchapp.com -->
    <title>imgEmptyState</title>
    <desc>Created with Sketch.</desc>
    <g id="Notifications-v4" stroke="none" stroke-width="1" fill="none" fill-rule="evenodd">
        <g id="Notifications-1.1" transform="translate(-135.000000, -313.000000)">
            <g id="imgEmptyState" transform="translate(135.000000, 312.000000)">
                <path d="M87.665,45.3934 L26.123,45.3934 L26.123,0.9994 L72.887,0.9994 C81.049,0.9994 87.665,7.6164 87.665,15.7784 L87.665,45.3934 Z" id="Fill-1" fill="#E2DCF4"></path>
                <path d="M73.6415,16.1449 C73.6415,18.9329 71.3815,21.1929 68.5935,21.1929 C65.8055,21.1929 63.5445,18.9329 63.5445,16.1449 C63.5445,13.3569 65.8055,11.0969 68.5935,11.0969 C71.3815,11.0969 73.6415,13.3569 73.6415,16.1449" id="Fill-4" fill="#A28CDB"></path>
                <path d="M102.249,17.5873 L68.994,17.5873 C68.333,17.5873 67.792,17.0463 67.792,16.3853 C67.792,15.7243 68.333,15.1833 68.994,15.1833 L102.249,15.1833 C102.91,15.1833 103.451,15.7243 103.451,16.3853 C103.451,17.0463 102.91,17.5873 102.249,17.5873" id="Fill-6" fill="#3D26B2"></path>
                <path d="M103.5517,22.7162 L94.9367,22.7162 C94.0227,22.7162 93.2747,21.9682 93.2747,21.0542 L93.2747,16.8452 C93.2747,15.9312 94.0227,15.1832 94.9367,15.1832 L103.5517,15.1832 C104.4657,15.1832 105.2137,15.9312 105.2137,16.8452 L105.2137,21.0542 C105.2137,21.9682 104.4657,22.7162 103.5517,22.7162" id="Fill-8" fill="#A28CDB"></path>
                <path d="M26.123,0.9999 L26.123,0.9999 C17.39,0.9999 10.31,8.0799 10.31,16.8129 L10.31,43.0969 L41.936,43.0969 L41.936,16.8129 C41.936,8.0799 34.856,0.9999 26.123,0.9999" id="Fill-10" fill="#3D26B2"></path>
                <polygon id="Fill-12" fill="#A28CDB" points="59.451 79.1008 66.163 79.1008 66.163 45.3928 59.451 45.3928"></polygon>
                <path d="M25.5341,45.3934 L1.6311,45.3934 C0.7341,45.3934 0.0001,44.6594 0.0001,43.7624 L0.0001,42.3934 C0.0001,41.4964 0.7341,40.7624 1.6311,40.7624 L25.5341,40.7624 C26.4301,40.7624 27.1651,41.4964 27.1651,42.3934 L27.1651,43.7624 C27.1651,44.6594 26.4301,45.3934 25.5341,45.3934" id="Fill-14" fill="#A28CDB"></path>
                <path d="M44.9531,45.3934 L24.3791,45.3934 C23.5421,45.3934 22.8571,44.7094 22.8571,43.8724 L22.8571,42.2824 C22.8571,41.4464 23.5421,40.7624 24.3791,40.7624 L44.9531,40.7624 C45.7901,40.7624 46.4741,41.4464 46.4741,42.2824 L46.4741,43.8724 C46.4741,44.7094 45.7901,45.3934 44.9531,45.3934" id="Fill-15" fill="#E2DCF4"></path>
            </g>
        </g>
    </g>
</svg>