<?xml version="1.0" encoding="UTF-8"?>
<svg width="22px" height="22px" viewBox="0 0 22 22" version="1.1" xmlns="http://www.w3.org/2000/svg" xmlns:xlink="http://www.w3.org/1999/xlink">
    <!-- Generator: Sketch 52.6 (67491) - http://www.bohemiancoding.com/sketch -->
    <title>iconsSmallPinGrey</title>
    <desc>Created with Sketch.</desc>
    <g id="Symbols" stroke="none" stroke-width="1" fill="none" fill-rule="evenodd">
        <g id="Icons/-Small-/-Pin-/-Grey" fill="#A2A5AE" fill-rule="nonzero">
            <path d="M11.3137757,17.4904865 L14.3322158,14.4720464 L18.6171343,17.9548619 C18.7015662,18.0392938 18.849322,18.0181858 18.9337539,17.9337539 C19.0181858,17.849322 19.0181858,17.7226742 18.9548619,17.6171343 L15.4720464,13.3533238 L18.4904865,10.3348837 C18.7226742,10.102696 18.7859981,9.76496843 18.6804582,9.44834883 C18.5749184,9.13172924 18.2794068,8.92064951 17.9627872,8.89954154 C17.1184683,8.81510965 16.0841776,9.08951329 15.0287789,9.65942856 L10.5538887,6.07107318 C10.9338322,5.33229413 11.102696,4.50908318 11.0393721,3.68587224 C10.9549402,3.094849 10.2161611,2.77822941 9.81510965,3.17928089 L4.17928089,8.81510965 C3.77822941,9.21616113 4.094849,9.95494018 4.68587224,10.0393721 C5.50908318,10.102696 6.33229413,9.95494018 7.07107318,9.5538887 L10.6594286,14.0287789 C10.0895133,15.0841776 9.83621762,16.1184683 9.89954154,16.9627872 C9.92064951,17.2794068 10.1317292,17.5749184 10.4483488,17.6804582 C10.7438605,17.8071061 11.081588,17.7226742 11.3137757,17.4904865 Z" id="Shape"></path>
        </g>
    </g>
</svg>