<?xml version="1.0" encoding="UTF-8"?>
<svg width="22px" height="22px" viewBox="0 0 22 22" version="1.1" xmlns="http://www.w3.org/2000/svg" xmlns:xlink="http://www.w3.org/1999/xlink">
    <!-- Generator: Sketch 52.6 (67491) - http://www.bohemiancoding.com/sketch -->
    <title>iconsSmallShareLinkBlue</title>
    <desc>Created with Sketch.</desc>
    <g id="Symbols" stroke="none" stroke-width="1" fill="none" fill-rule="evenodd">
        <g id="Icons/-Small-/-Share-/-Blue" fill="#4A00CD" fill-rule="nonzero">
            <path d="M9.15267665,6.53492165 L10.3009844,5.3864391 L10.3009844,13.4413701 C10.3009844,13.8274014 10.6139687,14.1403856 11,14.1403856 C11.3860313,14.1403856 11.6990156,13.8274014 11.6990156,13.4413701 L11.6990156,5.3864391 L12.8473234,6.5347469 C12.9836314,6.67122968 13.1627541,6.73955846 13.3415273,6.73955846 C13.5203006,6.73955846 13.6992486,6.67122968 13.8357313,6.5347469 C14.1088717,6.26178132 14.1088717,5.81912973 13.8357313,5.54633891 L11.4947283,3.20516106 C11.462224,3.17265684 11.426749,3.14347294 11.3886526,3.11813363 C11.379915,3.112192 11.369954,3.10834741 11.3608668,3.10293004 C11.3311586,3.08475564 11.3011009,3.06728025 11.2687715,3.0538242 C11.2554902,3.04823207 11.2411604,3.04561076 11.2275296,3.04089241 C11.1981709,3.03075668 11.1693365,3.0200967 11.1384051,3.01398031 C11.0931438,3.00471835 11.0470088,3 11.0001748,3 C10.9533407,3 10.9072057,3.00471835 10.8619444,3.01398031 C10.8311877,3.0200967 10.8023534,3.03093144 10.7731695,3.04089241 C10.7593639,3.04561076 10.7448593,3.04823207 10.731578,3.0538242 C10.6988991,3.06728025 10.6690161,3.08510514 10.6391332,3.10310479 C10.6302208,3.10852216 10.6204346,3.112192 10.6116969,3.11795887 C10.5734258,3.14347294 10.5379507,3.17265684 10.5056213,3.20516106 L8.1640939,5.54633891 C7.89095357,5.81930448 7.89095357,6.26195608 8.1640939,6.5347469 C8.43723423,6.80788723 8.87988583,6.80788723 9.15267665,6.53492165 Z M15.6019689,7.87108988 L13.4247102,7.87108988 C13.0386789,7.87108988 12.7256946,8.1840741 12.7256946,8.57010543 C12.7256946,8.95613677 13.0386789,9.26912099 13.4247102,9.26912099 L15.6019689,9.26912099 L15.6019689,17.0968719 L6.39803111,17.0968719 L6.39803111,9.26912099 L8.5752898,9.26912099 C8.96132114,9.26912099 9.27430535,8.95613677 9.27430535,8.57010543 C9.27430535,8.1840741 8.96132114,7.87108988 8.5752898,7.87108988 L6.39803111,7.87108988 C5.62719171,7.87108988 5,8.49828159 5,9.26912099 L5,17.0968719 C5,17.8677113 5.62719171,18.494903 6.39803111,18.494903 L15.6019689,18.494903 C16.3728083,18.494903 17,17.8677113 17,17.0968719 L17,9.26912099 C17,8.49828159 16.3728083,7.87108988 15.6019689,7.87108988 Z" id="Shape"></path>
        </g>
    </g>
</svg>