<?xml version="1.0" encoding="UTF-8"?>
<svg width="94px" height="94px" viewBox="0 0 94 94" version="1.1" xmlns="http://www.w3.org/2000/svg" xmlns:xlink="http://www.w3.org/1999/xlink">
    <!-- Generator: Sketch 53 (72520) - https://sketchapp.com -->
    <title>Group 2</title>
    <desc>Created with Sketch.</desc>
    <g id="Premium" stroke="none" stroke-width="1" fill="none" fill-rule="evenodd">
        <g id="Premium-tour-1.2" transform="translate(-32.000000, -229.000000)">
            <g id="Group-2" transform="translate(32.000000, 229.000000)">
                <circle id="Oval" fill="#EBAA37" opacity="0.100000001" cx="47" cy="47" r="47"></circle>
                <g id="Icons/Medium/-Star-/-Gold" transform="translate(16.000000, 16.000000)" fill="#EBAB37">
                    <path d="M32.0267569,14.1777208 L36.6581408,23.5624506 C36.8049175,23.8591717 37.0879113,24.0645534 37.4152549,24.112071 L47.7719839,25.6173236 C48.5961506,25.7371736 48.9256061,26.7498268 48.328996,27.3316537 L40.8349395,34.6366956 C40.5978794,34.8674201 40.4896448,35.2000434 40.54561,35.5263311 L42.3148494,45.8408222 C42.4558183,46.6618211 41.5936375,47.2879977 40.8565865,46.9004651 L31.5932906,42.0304371 C31.3007933,41.8767968 30.9502189,41.8767968 30.6577215,42.0304371 L21.3944257,46.9004651 C20.6573746,47.2879977 19.7951938,46.6618211 19.9361628,45.8408222 L21.7054021,35.5263311 C21.7613673,35.2000434 21.6531327,34.8674201 21.4160726,34.6366956 L13.9220161,27.3316537 C13.325406,26.7498268 13.6548615,25.7371736 14.4790282,25.6173236 L24.8357573,24.112071 C25.1631008,24.0645534 25.4460947,23.8591717 25.5923433,23.5624506 L30.2242552,14.1777208 C30.5927808,13.4306383 31.6582314,13.4306383 32.0267569,14.1777208" id="Fill-1"></path>
                </g>
            </g>
        </g>
    </g>
</svg>