<?xml version="1.0" encoding="UTF-8"?>
<svg width="64px" height="64px" viewBox="0 0 64 64" version="1.1" xmlns="http://www.w3.org/2000/svg" xmlns:xlink="http://www.w3.org/1999/xlink">
    <!-- Generator: Sketch 53 (72520) - https://sketchapp.com -->
    <title>Tagging@1x</title>
    <desc>Created with Sketch.</desc>
    <g id="Premium" stroke="none" stroke-width="1" fill="none" fill-rule="evenodd">
        <g id="Premium-tour-1.1-4" transform="translate(-32.000000, -1279.000000)">
            <g id="Tagging" transform="translate(32.000000, 1279.000000)">
                <circle id="Oval-Copy" fill="#FFFFFF" cx="32" cy="32" r="32"></circle>
                <g id="Icons/Medium/Search/Tagging" transform="translate(14.000000, 14.000000)" fill="#EBAB37" stroke="#EBAB37" stroke-width="0.927116342">
                    <path d="M20.3700329,28.2033109 L14.647046,28.2033109 C12.5398995,28.2033109 10.8317215,26.4951329 10.8317215,24.3879864 L10.8317215,11.9881815 L17.2068598,6.52377727 C17.3804576,6.37497918 17.6366213,6.37497918 17.8102191,6.52377727 L24.1853574,11.9881815 L24.1853574,24.3879864 C24.1853574,26.4951329 22.4771794,28.2033109 20.3700329,28.2033109 Z M20.3324253,14.8496033 C20.3324253,13.2788545 19.0590831,12.0055124 17.4883343,12.0055124 C15.9175855,12.0055124 14.6442434,13.2788545 14.6442434,14.8496033 C14.6442434,16.4203521 15.9175855,17.6936943 17.4883343,17.6936943 C19.0590831,17.6936943 20.3324253,16.4203521 20.3324253,14.8496033 Z" id="Combined-Shape" transform="translate(17.508539, 17.351172) rotate(-45.000000) translate(-17.508539, -17.351172) "></path>
                </g>
            </g>
        </g>
    </g>
</svg>