<?xml version="1.0" encoding="UTF-8"?>
<svg width="48px" height="48px" viewBox="0 0 48 48" version="1.1" xmlns="http://www.w3.org/2000/svg" xmlns:xlink="http://www.w3.org/1999/xlink">
    <!-- Generator: Sketch 53 (72520) - https://sketchapp.com -->
    <title>twitter</title>
    <desc>Created with Sketch.</desc>
    <g id="Premium" stroke="none" stroke-width="1" fill="none" fill-rule="evenodd">
        <g id="Premium-tour-1.2" transform="translate(-135.000000, -566.000000)" fill="#5AA8DF">
            <g id="Group-5" transform="translate(77.000000, 566.000000)">
                <g id="twitter" transform="translate(58.000000, 0.000000)">
                    <rect id="Rectangle-Copy" fill-rule="nonzero" opacity="0.100000001" x="0" y="0" width="48" height="48" rx="24"></rect>
                    <path d="M37,16.4046875 C36.0804687,16.8125 35.0914063,17.0882812 34.0539062,17.2125 C35.1132812,16.5773437 35.9265625,15.5726562 36.309375,14.375 C35.31875,14.9625 34.2203125,15.3890625 33.0523438,15.6195312 C32.1164062,14.6226563 30.7835938,14 29.3085938,14 C26.4757812,14 24.1796875,16.2960937 24.1796875,19.1289062 C24.1796875,19.5304687 24.225,19.921875 24.3125,20.2976562 C20.0492187,20.0835937 16.2703125,18.0414063 13.740625,14.9382813 C13.2992187,15.6960937 13.0460937,16.5773437 13.0460937,17.5171875 C13.0460937,19.2960937 13.9515625,20.8664062 15.3273438,21.7859375 C14.4867187,21.759375 13.6960937,21.5289062 13.0046875,21.1445312 C13.0039062,21.1664063 13.0039062,21.1875 13.0039062,21.209375 C13.0039062,23.6945312 14.771875,25.7671875 17.11875,26.2382812 C16.6882813,26.3554687 16.2351562,26.4179687 15.7671875,26.4179687 C15.4367188,26.4179687 15.115625,26.3859375 14.8023438,26.3265625 C15.4546875,28.3640625 17.3492187,29.846875 19.59375,29.8882812 C17.8382813,31.2640625 15.6265625,32.0835937 13.2234375,32.0835937 C12.809375,32.0835937 12.4015625,32.059375 12,32.0125 C14.2695312,33.4671875 16.965625,34.3164062 19.8625,34.3164062 C29.296875,34.3164062 34.4554687,26.5007812 34.4554687,19.7234375 C34.4554687,19.5007812 34.4507812,19.2796875 34.440625,19.059375 C35.4429688,18.3367187 36.3125,17.4335937 37,16.4046875" id="Fill-1"></path>
                </g>
            </g>
        </g>
    </g>
</svg>