<?xml version="1.0" encoding="UTF-8"?>
<svg width="64px" height="64px" viewBox="0 0 64 64" version="1.1" xmlns="http://www.w3.org/2000/svg" xmlns:xlink="http://www.w3.org/1999/xlink">
    <!-- Generator: Sketch 53 (72520) - https://sketchapp.com -->
    <title>Upload &gt;10MB@1x</title>
    <desc>Created with Sketch.</desc>
    <g id="Premium" stroke="none" stroke-width="1" fill="none" fill-rule="evenodd">
        <g id="Premium-tour-1.1-4" transform="translate(-32.000000, -363.000000)">
            <g id="Upload-&gt;10MB" transform="translate(32.000000, 363.000000)">
                <circle id="Oval" fill="#FFFFFF" cx="32" cy="32" r="32"></circle>
                <g id="Icons/Medium/Attachment/Gold" transform="translate(23.148936, 14.297872)">
                    <rect id="Rectangle-3" x="0" y="0" width="35.6518375" height="34.6615087"></rect>
                    <path d="M17.2873264,15.1233718 L11.4436299,9.47873841 C8.82574097,6.95002724 4.58130568,6.95002724 1.96341672,9.47873841 C-0.65447224,12.0074497 -0.65447224,16.1073007 1.96341672,18.6360119 L9.61459517,26.0265561 C11.4900155,27.8380912 14.5289298,27.8435389 16.4112984,26.03874 C18.2876024,24.2397564 18.2988518,21.3121615 16.4364253,19.4997736 C16.4322502,19.495716 13.8710528,17.0217497 8.75283296,12.0778748 C7.62102973,10.9846271 5.78601692,10.9846271 4.65421369,12.0778748 C3.52241173,13.1711227 3.52241173,14.9436276 4.65421369,16.0368755 L10.4979115,21.6815088 L11.9330023,20.2953026 L6.08930583,14.6506693 C5.75008369,14.323002 5.75008369,13.7917483 6.08930583,13.464081 C6.42852924,13.1364137 6.9785174,13.1364137 7.31774082,13.464081 L14.9887926,20.8738219 C16.0688103,21.9247961 16.0623306,23.6111484 14.9815426,24.6473983 C13.892603,25.6914646 12.1346084,25.6883131 11.0496873,24.64035 L3.39850886,17.2498058 C1.57319972,15.486675 1.57319972,12.6280753 3.39850886,10.8649446 C5.223818,9.10181382 8.18322864,9.10181382 10.0085378,10.8649446 L15.8522356,16.509578 L17.2873264,15.1233718 Z" id="Shape" fill="#EBAB37" fill-rule="nonzero"></path>
                </g>
            </g>
        </g>
    </g>
</svg>