<?xml version="1.0" encoding="UTF-8"?>
<svg width="64px" height="64px" viewBox="0 0 64 64" version="1.1" xmlns="http://www.w3.org/2000/svg" xmlns:xlink="http://www.w3.org/1999/xlink">
    <!-- Generator: Sketch 53 (72520) - https://sketchapp.com -->
    <title>UserControls@1x</title>
    <desc>Created with Sketch.</desc>
    <g id="Premium" stroke="none" stroke-width="1" fill="none" fill-rule="evenodd">
        <g id="Premium-tour-1.1-4" transform="translate(-32.000000, -1508.000000)">
            <g id="UserControls" transform="translate(32.000000, 1508.000000)">
                <circle id="Oval-Copy-2" fill="#FFFFFF" cx="32" cy="32" r="32"></circle>
                <g id="Icons/Medium/User-controls/Gold-Copy-2" transform="translate(14.000000, 14.000000)" fill="#EBAB37">
                    <g id="sliders" transform="translate(6.499033, 8.665377)">
                        <path d="M17.3551338,13.4827864 L15.6028596,13.4827864 C14.9548849,13.4827864 14.4295977,12.9574992 14.4295977,12.3095245 C14.4295977,11.6615498 14.9548849,11.1362626 15.6028596,11.1362626 L21.4539319,11.1362626 C22.1019065,11.1362626 22.6271938,11.6615498 22.6271938,12.3095245 C22.6271938,12.9574992 22.1019065,13.4827864 21.4539319,13.4827864 L19.7016576,13.4827864 L19.7016576,17.043957 C19.7016576,17.6919317 19.1763704,18.2172189 18.5283957,18.2172189 C17.8804211,18.2172189 17.3551338,17.6919317 17.3551338,17.043957 L17.3551338,13.4827864 Z M9.55370404,3.5611706 L9.55370404,6.2394534e-14 C9.55370404,-0.647974655 10.0789913,-1.1732619 10.7269659,-1.1732619 C11.3749406,-1.1732619 11.9002278,-0.647974655 11.9002278,6.2394534e-14 L11.9002278,3.5611706 L13.6525021,3.5611706 C14.3004768,3.5611706 14.825764,4.08645784 14.825764,4.7344325 C14.825764,5.38240715 14.3004768,5.9076944 13.6525021,5.9076944 L7.80142978,5.9076944 C7.15345512,5.9076944 6.62816788,5.38240715 6.62816788,4.7344325 C6.62816788,4.08645784 7.15345512,3.5611706 7.80142978,3.5611706 L9.55370404,3.5611706 Z M1.75227427,11.5890134 L2.39808173e-14,11.5890134 C-0.647974655,11.5890134 -1.1732619,11.0637262 -1.1732619,10.4157515 C-1.1732619,9.76777684 -0.647974655,9.2424896 2.39808173e-14,9.2424896 L5.85107233,9.2424896 C6.49904699,9.2424896 7.02433423,9.76777684 7.02433423,10.4157515 C7.02433423,11.0637262 6.49904699,11.5890134 5.85107233,11.5890134 L4.09879807,11.5890134 L4.09879807,17.043957 C4.09879807,17.6919317 3.57351082,18.2172189 2.92553617,18.2172189 C2.27756151,18.2172189 1.75227427,17.6919317 1.75227427,17.043957 L1.75227427,11.5890134 Z M4.09879807,6.6282055 C4.09879807,7.27618015 3.57351082,7.8014674 2.92553617,7.8014674 C2.27756151,7.8014674 1.75227427,7.27618015 1.75227427,6.6282055 L1.75227427,5.44009282e-14 C1.75227427,-0.647974655 2.27756151,-1.1732619 2.92553617,-1.1732619 C3.57351082,-1.1732619 4.09879807,-0.647974655 4.09879807,5.44009282e-14 L4.09879807,6.6282055 Z M11.9002278,17.043957 C11.9002278,17.6919317 11.3749406,18.2172189 10.7269659,18.2172189 C10.0789913,18.2172189 9.55370404,17.6919317 9.55370404,17.043957 L9.55370404,8.5219785 C9.55370404,7.87400384 10.0789913,7.3487166 10.7269659,7.3487166 C11.3749406,7.3487166 11.9002278,7.87400384 11.9002278,8.5219785 L11.9002278,17.043957 Z M19.7016576,8.5219785 C19.7016576,9.16995315 19.1763704,9.6952404 18.5283957,9.6952404 C17.8804211,9.6952404 17.3551338,9.16995315 17.3551338,8.5219785 L17.3551338,4.6629367e-14 C17.3551338,-0.647974655 17.8804211,-1.1732619 18.5283957,-1.1732619 C19.1763704,-1.1732619 19.7016576,-0.647974655 19.7016576,4.6629367e-14 L19.7016576,8.5219785 Z" id="Combined-Shape" fill-rule="nonzero"></path>
                    </g>
                </g>
            </g>
        </g>
    </g>
</svg>